<?xml version="1.0" ?><svg id="Layer_1" style="enable-background:new 0 0 500 500;" version="1.1" viewBox="0 0 500 500" xml:space="preserve" xmlns="http://www.w3.org/2000/svg" xmlns:xlink="http://www.w3.org/1999/xlink"><g><g><g><path d="M270.128,444.942c-0.614,0-1.15-0.422-1.295-1.02c-0.146-0.604,0.148-1.233,0.708-1.509     l93.637-46.142c0.182-0.088,0.385-0.135,0.588-0.135c1.85,0,18.593,14.732,49.764,43.785c0.398,0.37,0.531,0.942,0.335,1.452     c-0.192,0.505-0.676,0.843-1.218,0.853C412.648,442.226,270.136,444.942,270.128,444.942z" style="fill:#F47D1C;"/></g></g><path d="M413.887,441.069l-109.383-4.207l70.904-31.689c-4.469-3.886-7.661-6.509-9.59-7.88l-94.453,46.811   l-0.06,0.815c13.181-0.251,141.343-2.694,141.343-2.694c0.541-0.01,1.025-0.349,1.218-0.853   C413.904,441.274,413.873,441.172,413.887,441.069z" style="opacity:0.2;"/><g><g><path d="M363.767,397.469c2.262,0,48.855,43.427,48.855,43.427l-142.493,2.714L363.767,397.469     L363.767,397.469z M363.767,394.805c-0.408,0-0.811,0.094-1.178,0.274l-93.638,46.141c-1.12,0.552-1.706,1.807-1.412,3.019     c0.291,1.196,1.362,2.035,2.589,2.035c0.017,0,0.034,0,0.051,0l142.493-2.714c1.085-0.021,2.049-0.698,2.437-1.712     c0.388-1.013,0.123-2.161-0.671-2.901C367.078,394.805,365.005,394.805,363.767,394.805L363.767,394.805z" style="fill:#29304F;"/></g></g><g><g><path d="M270.128,444.942c-0.398,0-0.791-0.182-1.051-0.51l-101.329-129.83     c-0.341-0.437-0.375-1.041-0.086-1.514l106.756-175.514c0.125-0.208,0.302-0.375,0.515-0.484l73.735-38.903     c0,0,33.58-5.131,33.645-5.131c0.182,0,0.362,0.036,0.529,0.109l90.023,38.904c0.484,0.213,0.801,0.692,0.801,1.223v37.546     c0,0.51-0.292,0.978-0.754,1.202l-50.667,24.427c-0.18,0.084-0.377,0.13-0.578,0.13c-0.042,0-32.529-3.028-32.529-3.028     l8.076,187.108c0.021,0.525-0.265,1.015-0.736,1.249l-125.756,62.878C270.534,444.896,270.331,444.942,270.128,444.942z" style="fill:#F47D1C;"/></g></g><path d="M389.763,217.053l-127-38.189l20.426-38.189l65.184-41.365c0,0-1.185,0.248-3.041,0.637   l-70.397,37.142c-0.214,0.11-0.391,0.276-0.515,0.484l-38.01,62.491l71.718,149.001c0,0-35.595,89.128-35.595,90.46   c0,1.332,44.85-93.252,44.85-93.252l-13.766-27.087l24.823-47.368l-29.264,39.375L251.217,209.06l7.105-16.874L389.763,217.053z" style="opacity:0.2;"/><g><g><g><path d="M349.705,100.632c-0.315,0-0.622-0.11-0.864-0.318c-0.294-0.25-0.466-0.614-0.468-1.004      l-0.414-42.91c-0.005-0.557,0.338-1.057,0.859-1.254c0.156-0.062,0.315-0.089,0.474-0.089c0.377,0,0.747,0.162,1.004,0.458      l33.023,37.998c0.32,0.37,0.414,0.88,0.245,1.332c-0.166,0.458-0.57,0.786-1.051,0.858      C382.513,95.704,349.77,100.632,349.705,100.632z" style="fill:#FF9F48;"/></g></g></g><g><g><path d="M349.292,56.391l33.022,37.998l-32.609,4.914L349.292,56.391L349.292,56.391z M349.291,53.726     c-0.316,0-0.636,0.057-0.944,0.174c-1.044,0.396-1.73,1.4-1.72,2.517l0.414,42.912c0.007,0.771,0.349,1.502,0.936,2.002     c0.485,0.413,1.099,0.636,1.729,0.636c0.132,0,0.264-0.01,0.397-0.029l32.609-4.914c0.961-0.145,1.767-0.801,2.103-1.714     c0.336-0.912,0.148-1.935-0.489-2.669l-33.022-37.998C350.786,54.049,350.048,53.726,349.291,53.726L349.291,53.726z" style="fill:#29304F;"/></g></g><g><g><path d="M382.314,94.389l90.019,38.903v37.546l-50.664,24.427l-33.927-3.167l8.143,188.634L270.129,443.61     L168.8,313.783l106.757-175.515l73.734-38.903L382.314,94.389L382.314,94.389z M382.314,91.724c-0.132,0-0.265,0.01-0.397,0.03     l-33.022,4.976c-0.296,0.044-0.582,0.139-0.846,0.278l-73.734,38.903c-0.426,0.225-0.783,0.561-1.033,0.972L166.524,312.398     c-0.576,0.946-0.505,2.151,0.176,3.024l101.328,129.827c0.519,0.664,1.302,1.025,2.102,1.025c0.403,0,0.81-0.091,1.19-0.281     l125.756-62.878c0.939-0.47,1.515-1.448,1.47-2.498l-8.011-185.582l30.886,2.882c0.083,0.008,0.165,0.012,0.248,0.012     c0.4,0,0.795-0.09,1.157-0.264l50.664-24.427c0.921-0.444,1.507-1.377,1.507-2.4v-37.546c0-1.063-0.631-2.024-1.607-2.446     l-90.019-38.902C383.036,91.799,382.676,91.724,382.314,91.724L382.314,91.724z" style="fill:#29304F;"/></g></g><g><g><g><path d="M401.66,194.738c-15.26-2.175-30.851-4.491-30.851-4.491c-0.435-0.062-0.812-0.338-1.004-0.734      l-23.071-47.495c-0.096-0.198-0.141-0.417-0.133-0.641l1.772-42.135c0.029-0.635,0.502-1.165,1.134-1.259      c0,0,32.742-4.928,32.807-4.928c0.182,0,0.362,0.036,0.529,0.109l90.023,38.904c0.484,0.213,0.801,0.692,0.801,1.223v37.546      c0,0.51-0.292,0.978-0.754,1.202l-50.667,24.427c-0.18,0.084-0.377,0.13-0.578,0.13      C421.627,196.596,401.66,194.738,401.66,194.738z" style="fill:#FF9F48;"/></g></g></g><path d="M431.128,188.029c-0.18,0.083-0.377,0.13-0.578,0.13c-0.042,0-20.009-1.858-20.009-1.858   c-15.26-2.175-30.851-4.491-30.851-4.491c-0.434-0.063-0.812-0.338-1.004-0.734l-23.071-47.495   c-0.097-0.198-0.141-0.416-0.133-0.64l1.471-34.99c-3.595,0.541-6.114,0.92-6.114,0.92c-0.633,0.094-1.106,0.625-1.135,1.259   l-1.772,42.136c-0.008,0.224,0.036,0.442,0.133,0.64l23.071,47.495c0.192,0.395,0.57,0.671,1.004,0.734   c0,0,15.591,2.315,30.851,4.491c0,0,19.967,1.858,20.009,1.858c0.2,0,0.398-0.047,0.578-0.13l50.667-24.427   c0.463-0.224,0.755-0.692,0.755-1.202v-4.848L431.128,188.029z" style="opacity:0.2;"/><path d="M336.334,255.607c-0.645-0.344-1.457-0.088-1.795,0.567l-83.685,161.037   c-0.34,0.651-0.086,1.457,0.568,1.795c0.195,0.104,0.406,0.151,0.614,0.151c0.481,0,0.945-0.26,1.181-0.718l83.685-161.037   C337.242,256.752,336.987,255.945,336.334,255.607z" style="fill:#29304F;"/><g><g><g><path d="M330.277,271.234c-0.341-0.005-0.666-0.141-0.911-0.375l-85.043-82.33      c-0.427-0.417-0.529-1.061-0.247-1.587c0.234-0.437,0.69-0.702,1.173-0.702c0.094,0,0.19,0.01,0.284,0.031L401.145,220.2      l30.333,7.244c0.409,0.099,0.749,0.385,0.916,0.77c0.164,0.385,0.138,0.833-0.073,1.197l-24.427,42.068      c-0.239,0.411-0.679,0.661-1.153,0.661C406.737,272.139,330.277,271.234,330.277,271.234z" style="fill:#FF9F48;"/></g></g></g><g><g><path d="M269.918,444.927l-73.283-11.761c-0.245-0.042-0.473-0.145-0.661-0.312l-57.9-50.212     c-0.206-0.177-0.351-0.411-0.419-0.671L71.158,122.769c-0.104-0.411-0.008-0.848,0.26-1.176c0.253-0.312,0.632-0.489,1.03-0.489     c0.023,0,0.046,0,0.07,0c85.774,4.538,86.61,4.959,86.927,5.116c0.908,0.458,49.605,30.271,59.357,36.245     c0.219,0.13,0.393,0.322,0.505,0.551l90.018,185.469c0.164,0.338,0.177,0.729,0.036,1.077l-37.998,94.543     c-0.206,0.515-0.7,0.838-1.236,0.838C270.058,444.942,269.988,444.937,269.918,444.927z" style="fill:#F47D1C;"/></g></g><g><g><path d="M72.448,122.435c0,0,85.496,4.524,86.401,4.976c0.905,0.452,59.259,36.189,59.259,36.189     l90.019,185.467l-37.998,94.543l-73.282-11.761l-57.902-50.212L72.448,122.435L72.448,122.435z M72.448,119.771     c-0.796,0-1.553,0.356-2.061,0.976c-0.537,0.656-0.73,1.529-0.52,2.35l66.497,259.202c0.135,0.524,0.426,0.995,0.835,1.35     l57.902,50.212c0.375,0.325,0.833,0.539,1.323,0.618l73.282,11.761c0.142,0.023,0.284,0.034,0.424,0.034     c1.073,0,2.06-0.65,2.47-1.671l37.999-94.543c0.28-0.698,0.253-1.481-0.076-2.157l-90.019-185.467     c-0.222-0.458-0.571-0.843-1.005-1.109c-17.575-10.762-58.55-35.845-59.459-36.3c-0.657-0.328-1.401-0.701-87.452-5.254     C72.542,119.772,72.495,119.771,72.448,119.771L72.448,119.771z" style="fill:#29304F;"/></g></g><path d="M347.97,57.504l0.4,41.546l35.215-4.445c0.066-0.386-0.001-0.785-0.266-1.091l-6.434-7.403   l-23.091,3.943L347.97,57.504z" style="opacity:0.2;"/><polygon points="426.176,118.472 467.029,134.903 467.029,163.323 462.145,136.679  " style="fill:#FFFFFF;"/><path d="M202.815,427.093l-51.066-55.064L98.905,157.994l71.543-25.102c-6.3-3.842-10.735-6.538-11.002-6.672   c-0.125-0.062-0.354-0.166-5.884-0.55L77.443,147.27l60.212,234.701c0.068,0.261,0.213,0.494,0.419,0.671l57.9,50.212   c0.188,0.166,0.416,0.27,0.661,0.312l59.928,9.618L202.815,427.093z" style="opacity:0.2;"/><g><g><g><path d="M27.665,164.025c-0.409,0-0.801-0.187-1.057-0.52c-0.33-0.432-0.367-1.015-0.096-1.483      l24.426-42.068c0.24-0.411,0.679-0.661,1.153-0.661c0.029,0,106.842,6.791,106.842,6.791c0.651,0.042,1.176,0.547,1.239,1.197      c0.065,0.645-0.349,1.249-0.978,1.416L28.011,163.978C27.896,164.009,27.779,164.025,27.665,164.025z" style="fill:#FF9F48;"/></g></g></g><path d="M61.156,119.869c-5.604-0.356-9.06-0.576-9.065-0.576c-0.473,0-0.913,0.25-1.153,0.661   l-24.426,42.068c-0.271,0.468-0.234,1.051,0.096,1.483c0.255,0.333,0.648,0.52,1.057,0.52c0.114,0,0.231-0.015,0.346-0.047   l131.183-35.281L42.065,151.333L61.156,119.869z" style="opacity:0.2;"/><g><g><path d="M52.092,120.626l104.981,6.673l1.775,0.113L27.664,162.695L52.092,120.626L52.092,120.626z      M52.091,117.961c-0.945,0-1.825,0.502-2.303,1.326l-24.428,42.07c-0.542,0.933-0.467,2.101,0.189,2.958     c0.512,0.668,1.299,1.044,2.115,1.044c0.23,0,0.463-0.03,0.692-0.092l131.184-35.284c1.26-0.339,2.089-1.54,1.959-2.838     c-0.13-1.298-1.18-2.311-2.482-2.394l-1.776-0.112l-104.981-6.673C52.204,117.963,52.148,117.961,52.091,117.961L52.091,117.961z     " style="fill:#29304F;"/></g></g><g><g><path d="M382.314,94.389l90.019,38.903v37.546l-50.664,24.427l-19.888-1.856     c-15.189-2.163-30.776-4.477-30.776-4.477l-23.071-47.497l1.771-42.132L382.314,94.389L382.314,94.389z M382.314,91.724     c-0.132,0-0.265,0.01-0.397,0.03l-32.609,4.914c-1.262,0.19-2.211,1.248-2.265,2.523l-1.77,42.132     c-0.019,0.441,0.072,0.879,0.265,1.276l23.07,47.498c0.385,0.791,1.135,1.342,2.006,1.471c0,0,15.594,2.315,30.792,4.479     l20.016,1.871c0.083,0.008,0.165,0.012,0.248,0.012c0.4,0,0.795-0.09,1.157-0.264l50.664-24.427     c0.922-0.444,1.508-1.377,1.508-2.4v-37.546c0-1.063-0.632-2.024-1.608-2.445l-90.019-38.903     C383.036,91.798,382.676,91.724,382.314,91.724L382.314,91.724z" style="fill:#29304F;"/></g></g><path d="M355.127,261.015l40.161-42.092l-2.385-0.52l-63.759,52.241l0.222,0.215   c0.245,0.234,0.57,0.369,0.911,0.375c0,0,51.871,0.614,70.152,0.831L355.127,261.015z" style="opacity:0.2;"/><path d="M244.801,186.363c-0.298,0.11-0.569,0.286-0.725,0.579c-0.281,0.526-0.179,1.171,0.247,1.587   l85.043,82.33l6.222-8.068C335.588,262.791,263.238,201.757,244.801,186.363z" style="opacity:0.2;"/><path d="M433.617,227.689c-0.332-0.774-1.01-1.345-1.83-1.541l-30.308-7.238l-155.663-33.939   c-0.189-0.042-0.38-0.061-0.568-0.061c-0.967,0-1.877,0.528-2.348,1.406c-0.562,1.049-0.36,2.345,0.495,3.173l85.043,82.329   c0.489,0.473,1.141,0.741,1.822,0.749l76.448,0.905c0.011,0,0.021,0,0.032,0c0.949,0,1.827-0.504,2.304-1.326l24.427-42.069   C433.896,229.349,433.949,228.463,433.617,227.689z M245.249,187.575l143.561,31.3l-59.371,49.555   c-0.134,0.113-0.147,0.285-0.225,0.431L245.249,187.575z M406.741,270.808l-74.928-0.886l59.496-49.66   c0.237-0.198,0.336-0.477,0.397-0.757l9.155,1.996l30.308,7.238L406.741,270.808z" style="fill:#29304F;"/><g><g><g><path d="M420.763,275.308c-0.167,0-0.333-0.031-0.492-0.094c-0.348-0.14-0.622-0.416-0.754-0.765      l-19.902-52.476c-0.174-0.463-0.078-0.989,0.25-1.358c0.255-0.287,0.619-0.448,0.996-0.448c0.107,0,0.214,0.01,0.32,0.036      l43.876,10.855c0.26,0.068,0.489,0.203,0.666,0.395l18.999,20.81c0.286,0.312,0.406,0.739,0.322,1.15      c-0.078,0.417-0.349,0.765-0.723,0.947l-42.978,20.81C421.161,275.262,420.961,275.308,420.763,275.308z" style="fill:#FF9F48;"/></g></g></g><path d="M411.966,229.931l31.646,0.772l-42.43-10.497c-0.107-0.026-0.214-0.036-0.32-0.036   c-0.377,0-0.741,0.161-0.996,0.448c-0.328,0.369-0.424,0.895-0.25,1.358l19.902,52.476c0.133,0.348,0.406,0.624,0.754,0.765   c0.159,0.063,0.325,0.094,0.492,0.094c0.198,0,0.398-0.047,0.58-0.135l7.965-3.856L411.966,229.931z" style="opacity:0.2;"/><g><g><path d="M400.861,221.502l43.879,10.856l18.999,20.809l-42.974,20.809L400.861,221.502L400.861,221.502z      M400.861,218.837c-0.752,0-1.481,0.319-1.993,0.897c-0.658,0.742-0.849,1.786-0.498,2.713l19.904,52.473     c0.265,0.699,0.811,1.254,1.506,1.531c0.317,0.126,0.651,0.189,0.985,0.189c0.398,0,0.795-0.089,1.161-0.266l42.974-20.808     c0.757-0.367,1.297-1.069,1.455-1.895c0.159-0.826-0.081-1.678-0.648-2.299l-18.999-20.809c-0.355-0.389-0.816-0.663-1.327-0.79     l-43.879-10.857C401.288,218.863,401.073,218.837,400.861,218.837L400.861,218.837z" style="fill:#29304F;"/></g></g><polygon points="449.711,242.365 458.148,252.134 438.61,261.46 452.375,251.246  " style="fill:#FFFFFF;"/><polygon points="322.267,207.728 378.218,219.718 349.354,242.365 366.672,221.05  " style="fill:#FFFFFF;"/><polygon points="260.542,268.121 300.064,350.271 272.532,421.321 290.738,348.939  " style="fill:#FFFFFF;"/><polygon points="387.543,321.408 388.875,374.695 324.486,408.887 382.214,370.254  " style="fill:#FFFFFF;"/><path d="M82.919,125.133l55.507,2.664C138.426,127.798,109.118,131.35,82.919,125.133z" style="fill:#FFFFFF;"/><path d="M384.879,420.876l20.427,16.431C405.305,437.307,394.204,435.53,384.879,420.876z" style="fill:#FFFFFF;"/></g></svg>